PathFileType	3	(X/Y/Z)	D:\minhoCalibration\240510\subject5_KPNP\preferred\preferred18.trc
DataRate	CameraRate	NumFrames	NumMarkers	Units	OrigDataRate	OrigDataStartFrame	OrigNumFrames
200.0	200.0	37	10	mm	200.0	267	155	
Frame#	Time	Left_Ankle_Outer1			Left_Ankle_Inner1			Left_Knee_Outer1			Left_Knee_Inner1			Left_Wrist1			Right_Wrist1			Right_Knee_Inner1			Right_Knee_Outer1			Right_Ankle_Inner1			Right_Ankle_Outer1			
		X1	Y1	Z1	X2	Y2	Z2	X3	Y3	Z3	X4	Y4	Z4	X5	Y5	Z5	X6	Y6	Z6	X7	Y7	Z7	X8	Y8	Z8	X9	Y9	Z9	X10	Y10	Z10	
267	1.325	-101.89793	78.751129	-712.87915	-148.29855	90.944023	-692.20874	25.892347	522.92413	-572.86444	-52.491493	506.35696	-524.71204	38.074894	964.39148	-725.45026	-180.59782	1175.6672	-589.65479	-268.54053	970.521	-148.83005	-311.86893	1043.3103	-175.42355	-431.71075	850.29614	239.95459	-510.95868	897.44708	208.26767
268	1.33	-100.93344	79.292137	-713.43951	-148.09093	90.968887	-692.24744	26.303259	523.23688	-573.27228	-51.915207	506.56439	-524.96631	38.223053	964.83881	-725.16309	-182.56023	1174.3846	-589.40765	-270.32639	963.77386	-150.79156	-313.23389	1037.033	-176.47806	-436.27896	837.4585	235.67441	-515.58807	883.98022	203.63513
269	1.335	-101.08106	79.342674	-712.95703	-147.97626	90.896187	-692.49182	26.256443	523.19116	-573.508	-51.683022	506.71613	-525.28918	38.351852	965.21539	-724.91846	-183.74721	1173.5814	-588.96539	-271.91827	957.24463	-152.76071	-315.15036	1030.6902	-177.64529	-440.81494	823.85284	230.71162	-520.32599	870.09839	198.43097
270	1.34	-101.65357	79.081413	-712.37518	-148.31363	90.845924	-692.08954	26.222139	523.37366	-574.09271	-51.815838	506.73962	-525.74982	38.516666	965.83521	-724.58429	-185.00493	1172.4104	-589.32849	-273.32718	950.73712	-154.76436	-317.04657	1024.1158	-179.03915	-445.2807	809.8866	225.06789	-525.04944	855.69482	192.66252
271	1.345	-101.80845	79.362	-712.52118	-148.65709	90.526962	-692.34467	25.773449	523.37439	-574.40704	-52.426144	506.70898	-526.30231	38.460503	965.83368	-723.99915	-185.5696	1171.4888	-589.42377	-274.56009	944.34235	-156.69763	-319.01614	1017.4777	-180.52086	-449.86902	795.51221	219.11398	-529.74866	841.04456	186.44606
272	1.35	-102.07913	79.188416	-712.80469	-149.51674	90.160835	-692.08636	25.051338	523.1991	-574.82635	-53.50436	506.76059	-526.99445	39.448322	966.24896	-723.77466	-186.26631	1170.663	-589.6438	-275.63333	937.83051	-158.71434	-320.7688	1010.7159	-182.19911	-454.44241	781.04285	212.71086	-534.41016	826.11664	179.66721
273	1.355	-102.98199	79.165268	-712.34399	-150.4989	89.593781	-691.75244	23.90793	522.93524	-575.23669	-54.797241	506.75952	-527.97162	40.252449	966.52258	-723.22858	-186.80714	1169.9176	-589.64819	-276.6777	931.13538	-160.74968	-322.47769	1003.8073	-183.97916	-458.98047	766.05316	205.84186	-539.10638	811.01575	172.47899
274	1.36	-104.66758	78.466873	-711.45636	-151.82368	89.114639	-690.99103	22.767942	522.59698	-575.71692	-56.523712	506.59674	-528.92981	41.198112	966.79578	-722.59326	-187.23607	1169.3735	-589.70435	-277.85803	924.24628	-162.89268	-324.0484	996.78601	-185.8187	-463.83823	751.02448	198.57932	-543.67822	795.65955	164.85187
275	1.365	-106.3358	77.671928	-710.56549	-152.99771	88.499001	-690.52515	21.007849	522.03046	-576.10339	-58.46563	506.51474	-530.08826	42.17646	967.02979	-721.80109	-187.77242	1168.7578	-589.69373	-278.94843	917.13538	-165.20042	-325.43994	989.66046	-187.70749	-468.75842	735.91034	191.02745	-548.08008	780.09607	156.82036
276	1.37	-106.80003	77.854858	-711.0498	-154.07007	87.976692	-690.18976	19.773689	521.89178	-576.97717	-60.373009	506.41669	-531.47626	43.252068	967.3042	-720.88776	-188.16379	1168.3159	-590.00378	-280.15128	909.68207	-167.68648	-326.86298	982.3927	-189.54443	-473.47653	720.11328	183.02583	-552.42438	764.43463	148.38914
277	1.375	-108.45683	77.084122	-710.09192	-155.28073	87.173782	-689.75665	18.40774	521.63916	-577.69727	-62.350887	506.53421	-532.8075	44.558937	967.62793	-719.87787	-188.24878	1167.6631	-591.22455	-281.37982	902.08502	-170.36282	-328.31961	974.92316	-191.48511	-478.19528	704.23615	174.84776	-556.52252	748.5752	139.53062
278	1.38	-109.2468	76.798782	-709.82391	-155.63716	87.014221	-689.89191	16.839046	521.35437	-578.41888	-64.258675	506.40518	-534.13055	45.884151	968.15833	-718.80695	-188.92194	1167.7592	-591.0321	-282.74826	894.22314	-173.13586	-329.78275	967.23456	-193.46211	-481.25012	688.33795	164.88838	-560.38922	732.52112	130.21077
279	1.385	-109.46384	76.602692	-709.91266	-156.00978	86.759331	-689.92969	15.814533	521.3407	-579.26392	-65.709663	506.46771	-535.77704	47.184402	969.02423	-717.62988	-189.34081	1167.1166	-591.1333	-283.94904	886.01276	-176.2146	-331.38242	959.36719	-195.61461	-485.10419	672.07172	155.19785	-564.13708	716.19495	120.38013
280	1.39	-109.3117	77.172394	-709.98126	-156.1028	86.647911	-689.9375	14.861866	521.32959	-580.14075	-66.899788	506.80035	-537.24976	48.429455	970.10455	-716.15302	-190.21098	1166.9889	-591.3949	-284.96454	878.03571	-179.13383	-333.0416	951.30469	-197.94325	-488.45715	655.42267	144.85074	-567.60101	699.9455	110.25654
281	1.395	-109.18604	77.179474	-710.11456	-156.15709	86.69944	-689.93268	14.572017	521.8006	-581.37915	-67.814034	507.15424	-538.78656	50.466713	972.26514	-713.97888	-190.7921	1166.6799	-591.82678	-286.74258	870.13202	-182.7486	-334.63071	943.16852	-200.48608	-491.61279	638.88068	134.09579	-570.76764	683.55798	99.606033
282	1.4	-109.53378	76.785744	-709.85535	-156.12495	86.821152	-689.96863	13.991996	522.15686	-582.47858	-68.280716	507.46375	-540.21057	51.824009	973.56805	-712.50775	-192.2097	1166.0236	-591.82471	-288.11151	861.95685	-186.32281	-336.23013	934.7995	-203.44312	-494.59363	622.35077	122.979	-573.57019	667.49878	88.724403
283	1.405	-109.25365	77.016785	-710.15454	-155.8452	87.086739	-690.06531	13.838056	522.5907	-583.72522	-68.302582	507.97742	-541.80505	52.860027	974.85144	-711.12012	-193.01625	1166.0303	-592.37762	-289.71725	853.66821	-190.41179	-337.87643	926.52356	-206.77568	-497.146	605.5661	111.33039	-576.24792	650.73413	77.198898
284	1.41	-108.04578	77.842766	-711.34906	-155.63268	87.372284	-690.18176	13.970887	523.39551	-585.34436	-68.628235	508.38739	-544.08514	53.966988	976.14685	-709.79736	-194.29704	1165.5706	-592.22363	-291.13293	845.37457	-194.77983	-339.52991	918.17914	-210.44545	-499.56555	588.88373	99.431496	-578.55975	634.31427	65.39463
285	1.415	-108.58043	77.649071	-710.72632	-155.69675	87.334923	-690.05212	14.152552	524.0285	-586.87939	-67.770432	509.68015	-544.15259	55.214802	977.41705	-708.62061	-195.07146	1164.8568	-593.00623	-292.49258	837.06006	-199.78026	-340.92871	909.92957	-214.50726	-501.48618	572.66516	87.11982	-580.51703	617.85681	53.265419
286	1.42	-108.5442	77.77169	-710.70325	-155.31714	87.803322	-690.34271	14.374761	524.69965	-588.4953	-67.394356	510.23929	-545.34821	56.828892	978.66925	-707.3642	-196.35713	1164.2804	-593.09088	-293.71036	828.59778	-204.93921	-341.9682	901.65674	-219.05858	-503.27621	555.9126	74.21167	-582.23712	601.47711	40.647655
287	1.425	-108.39246	77.990227	-710.83954	-155.19992	88.033165	-690.42554	14.826786	525.37146	-590.11884	-66.742104	510.8363	-546.77191	58.108952	981.43237	-705.46863	-197.23004	1163.3146	-593.87128	-294.90952	820.05927	-210.83391	-343.40631	893.16876	-223.58696	-504.70502	539.47284	60.750698	-583.65649	585.21613	27.820978
288	1.43	-108.10221	78.081207	-711.22986	-154.85983	88.154648	-690.91833	14.973478	525.67474	-591.49414	-66.428467	511.24823	-547.82208	59.556767	982.5495	-704.45831	-197.89516	1162.8982	-594.24213	-295.31625	811.49805	-217.39929	-344.53137	884.54095	-228.62108	-505.86111	522.98425	46.932579	-584.83423	569.14166	14.781929
289	1.435	-107.70969	78.345512	-711.71802	-154.87552	88.647949	-690.39832	15.327167	526.14081	-592.85986	-66.035896	511.54364	-548.99072	61.280544	982.47095	-703.74707	-199.22289	1161.0522	-594.96692	-296.57208	802.48767	-223.57469	-346.448	875.64471	-233.36552	-506.72733	506.37643	32.71529	-585.8299	553.08722	1.4995019
290	1.44	-107.88855	78.374542	-711.42438	-155.06767	88.54879	-690.44037	15.771389	526.52606	-594.22766	-65.775345	511.94632	-549.69666	63.022667	982.59888	-702.97461	-199.89078	1160.3904	-595.92822	-297.78308	793.35852	-230.3064	-348.15918	866.58044	-238.13744	-507.42334	490.3999	18.492487	-586.56763	537.37836	-11.981668
291	1.445	-108.18874	78.439255	-711.05243	-154.75967	88.801109	-690.52576	15.850087	526.61072	-595.1449	-65.493683	512.21936	-550.74292	64.739807	983.06238	-702.09631	-200.20981	1159.1578	-595.4649	-298.78543	784.04297	-236.64473	-349.41528	857.44739	-243.13571	-507.93701	474.41031	3.8315296	-587.14514	521.7547	-25.852026
292	1.45	-107.65841	78.708794	-711.79797	-154.55849	88.877731	-691.01495	16.178051	526.85822	-596.27081	-65.455879	512.39447	-551.63666	65.906273	985.96155	-700.85583	-201.0856	1158.0197	-595.44153	-299.91275	774.69495	-243.6714	-350.52441	848.0473	-248.29915	-508.10593	458.63797	-11.10381	-587.44739	506.3244	-39.988571
293	1.455	-107.63015	78.730881	-711.73627	-154.67259	89.050858	-690.54932	16.197563	526.89746	-596.94714	-65.591782	512.44574	-552.47083	67.240456	987.21454	-700.50079	-201.78183	1156.2972	-595.90497	-300.75851	765.31812	-250.51314	-351.6525	838.33759	-253.7753	-508.00037	443.33707	-26.263962	-587.60211	490.94235	-54.52697
294	1.46	-108.21065	78.528717	-710.94336	-154.64673	89.046898	-690.67114	16.309685	526.86389	-597.62549	-65.792831	512.56671	-553.42749	69.220924	987.64148	-698.58862	-202.26768	1154.6959	-596.2879	-301.59415	756.05377	-257.9335	-353.48236	829.0755	-258.73911	-507.50668	428.2796	-41.548512	-587.33771	475.75073	-69.407364
295	1.465	-107.49738	78.82843	-711.67438	-154.6525	89.04467	-690.72913	16.457823	527.01831	-598.30212	-66.275726	512.55731	-554.50812	69.957878	989.11572	-698.1499	-202.68758	1153.4194	-596.39429	-302.66455	746.70685	-265.05426	-354.35049	819.62231	-264.88324	-506.51181	413.32654	-57.685307	-586.43646	460.73715	-84.711952
296	1.47	-107.78823	78.702232	-711.28674	-154.69139	89.050629	-690.66156	16.279448	526.91779	-598.60962	-66.947159	512.69232	-555.39166	71.486519	990.00562	-697.15546	-203.29163	1151.8804	-596.35718	-302.90106	737.89307	-272.50198	-355.65182	810.02289	-271.34695	-505.49429	398.76465	-73.28595	-586.07556	445.80344	-100.42079
297	1.475	-107.79164	78.75396	-711.25983	-154.75314	88.951912	-690.73865	16.032484	526.70673	-598.84564	-67.49868	512.97717	-556.26117	72.940094	990.95703	-695.81189	-203.72745	1150.2531	-596.60297	-302.95953	729.38977	-280.01144	-356.52454	801.15662	-278.16187	-504.08762	384.6012	-89.4338	-584.79279	431.18719	-116.70001
298	1.48	-108.25737	78.622284	-710.71082	-154.90955	88.891388	-690.72858	15.921563	526.77795	-599.1004	-68.251419	513.11365	-557.7334	74.18187	991.7782	-694.27051	-204.25299	1148.3063	-597.79559	-302.03552	721.24536	-286.77295	-357.7887	792.27643	-285.08835	-502.37299	370.58035	-105.79293	-583.24493	416.54681	-133.16029
299	1.485	-107.9278	78.610504	-711.16052	-154.97183	88.783241	-690.82965	15.50053	526.72198	-599.2326	-69.1772	513.45844	-558.79614	75.956711	992.5545	-692.22491	-204.80525	1146.8331	-598.1925	-302.09851	713.20282	-294.90445	-358.56439	783.31738	-292.3093	-500.0726	356.22678	-122.23439	-581.70026	402.36374	-150.37842
300	1.49	-107.97987	78.335602	-711.02161	-155.13611	88.641953	-690.96191	15.546348	527.00372	-599.56335	-70.06382	513.58051	-560.27551	77.349625	993.42249	-690.7204	-205.58189	1145.1824	-598.02246	-302.13348	705.44818	-302.53793	-358.89886	774.58142	-299.78879	-498.33878	343.27734	-139.65535	-579.66827	388.4903	-167.62125
301	1.495	-108.06757	78.06134	-710.94342	-155.03764	88.539696	-691.18793	15.192148	526.85974	-599.76654	-71.018036	513.41241	-561.61749	78.728325	994.2843	-689.0379	-206.25491	1143.2102	-598.17407	-301.9194	697.96393	-310.55859	-359.63962	766.05414	-307.2431	-495.45984	330.24716	-156.27191	-577.6734	375.09982	-184.89807
302	1.5	-108.10069	77.95343	-710.9126	-154.79041	88.148575	-691.9754	15.198955	526.76794	-599.99261	-72.055786	513.60388	-563.05145	80.065117	995.05029	-686.5343	-207.18584	1140.595	-598.5202	-300.73593	690.66125	-318.09207	-359.97293	757.79584	-315.87711	-493.06952	317.75827	-173.71184	-575.02203	361.66226	-203.15367
303	1.505	-107.54677	77.984276	-711.43671	-154.73848	88.069664	-692.04718	15.071799	526.9104	-600.16205	-73.209358	513.43439	-564.95258	81.480484	996.12347	-684.80475	-208.39052	1138.3885	-599.22382	-300.2865	683.35583	-325.82135	-360.76385	749.58514	-323.36124	-490.41003	305.38113	-191.49557	-572.32062	348.70267	-221.35057
